<svg width="900" height="160" xmlns="http://www.w3.org/2000/svg"><g fill="#929292"><path d="m28.622 59.947 28.23 55.635 22.666 8.037c12.57 4.533 22.872 7.83 23.284 7.624.825-.618-11.539-25.757-14.424-29.26-1.442-1.855-4.12-1.443-11.333 1.648-4.945 2.06-10.92 3.915-12.775 3.915-11.334 0-11.128-36.678.206-40.181 2.06-.824 3.709-2.267 3.709-3.297 0-4.74-20.812-42.654-24.11-44.096C37.07 17.292 1.836 4.517 1.01 4.517c-.412 0 12.157 24.933 27.612 55.43ZM70.245 30.48c0 1.03 12.364 26.17 13.6 27.406.412.618 5.976-1.236 12.158-3.709 13.187-5.563 16.278-4.327 19.575 7.83 2.679 10.303-.618 22.873-7.212 28.23l-5.564 4.327 11.54 22.667c6.181 12.57 12.981 23.49 15.042 24.315 6.8 2.678 42.242 15.454 43.066 15.454.412 0-53.575-107.15-55.636-110.653-.824-1.236-46.569-16.897-46.569-15.867Z"/></g><text xml:space="preserve" x="3" y="120" font-family="Trattatello" font-size="153" fill="#15c" letter-spacing="-3.06">K2</text><text xml:space="preserve" x="177.885" y="134" font-family="K2D" font-size="127.563" fill="#15c" letter-spacing="-2.551">AEROSPACE</text></svg>