<svg xmlns="http://www.w3.org/2000/svg" width="784" height="477"><path d="M416 78.8c0 .66-.451 1.2-1.003 1.2-.551 0-2.511 1.688-4.355 3.75-1.845 2.063-8.23 9.15-14.189 15.75-5.96 6.6-11.525 12.787-12.367 13.75-.842.963-1.813 1.75-2.158 1.75s-5.228-5.179-10.851-11.51l-10.224-11.51-6.728 11.26C339.91 127.028 326 150.864 326 151.433c0 .326 15.338.475 34.085.33l34.084-.263 4.511-8.5c2.481-4.675 5.593-10.178 6.916-12.229 1.322-2.05 2.404-4.161 2.404-4.691 0-.529.448-1.239.996-1.577 1.216-.752 1.88.826 6.625 15.747l3.737 11.75h14.321c7.877 0 14.321.372 14.321.826 0 .455-4.95 4.378-11 8.719-6.05 4.341-11.008 8.357-11.017 8.924-.009.567 4.111 10.148 9.156 21.292 5.045 11.143 8.907 20.526 8.583 20.851-.662.661-3.231-1.181-19.722-14.146-6.325-4.973-13.189-10.317-15.254-11.875l-3.753-2.834-4.781 2.057c-2.629 1.131-9.715 4.386-15.746 7.233-11.81 5.576-19.376 8.953-20.059 8.953-.643 0 4.022-8.417 10.185-18.375 3.02-4.881 5.319-9.047 5.109-9.258-.211-.211-26.661-.267-58.778-.125l-58.394.258 4.491 3c14.59 9.747 29.98 21.038 29.98 21.995 0 .612-2.761 5.813-6.135 11.559A24963.96 24963.96 0 0 0 277.7 233.5c-3.867 6.6-10.244 17.4-14.171 24-3.928 6.6-7.444 12.675-7.813 13.5-.37.825-6.917 12.075-14.549 25-7.633 12.925-13.735 23.671-13.559 23.88.175.209 6.522-2.773 14.105-6.626s40.787-20.629 73.787-37.28c33-16.651 64.714-32.715 70.475-35.698 5.762-2.983 10.618-4.998 10.791-4.477.174.521-6.709 16.347-15.296 35.17-8.586 18.823-15.378 34.456-15.094 34.74.285.285 6.364-3.696 13.509-8.846 24.453-17.623 44.172-31.363 45.409-31.641.68-.153 13.379 4.514 28.221 10.37 14.842 5.857 29.01 11.427 31.485 12.378 2.475.952 11.7 4.565 20.5 8.03 8.8 3.465 18.025 7.076 20.5 8.024 2.475.949 10.237 3.985 17.25 6.749 7.316 2.883 12.75 4.536 12.75 3.879 0-.63-1.097-4.522-2.437-8.649-1.34-4.126-6.538-20.328-11.551-36.003s-10.176-31.65-11.473-35.5c-1.298-3.85-6.021-18.475-10.495-32.5-9.504-29.794-10.978-34.01-11.877-33.972-.367.015-5.167 4.053-10.667 8.972s-10.45 8.939-11 8.934c-.55-.006-6.148-8.206-12.439-18.222-6.291-10.017-14.391-22.828-18-28.471A2611.216 2611.216 0 0 1 448 126.582c-.825-1.32-5.018-7.954-9.319-14.741C417.97 79.151 416 76.281 416 78.8M140 367.615c-.825.139-3.214.532-5.31.875-6.818 1.115-16.385 12.191-12.6 14.587.776.491 3.307.899 5.625.908 3.098.011 4.479-.478 5.212-1.848 1.408-2.632 6.503-4.501 10.234-3.755 4.129.826 5.839 2.341 5.839 5.172 0 2.725-3.443 5.375-10.355 7.973-9.318 3.502-15.97 12.728-16.088 22.314l-.057 4.659 18.75.272 18.75.272V408l-10.25-.015c-15.977-.024-16.681-2.207-2.818-8.735 10.854-5.112 13.211-7.906 13.282-15.745.057-6.383-1.602-9.445-6.988-12.897-3.435-2.201-9.611-3.599-13.226-2.993m332.937.328c-12.35 2.362-16.281 18.744-6.202 25.848 1.521 1.072 5.69 2.984 9.265 4.248 7.697 2.722 9 3.598 9 6.048 0 4.433-9.575 5.429-13.591 1.413-3.035-3.035-3.747-3.072-8.041-.418-3.922 2.424-4.187 4.446-1.036 7.918 9.743 10.735 30.39 8.172 33.718-4.186 2.512-9.33-1.34-15.086-13.492-20.16-9.034-3.772-11.161-5.951-8.058-8.257 2.417-1.796 6.119-1.071 9.198 1.803l2.198 2.051 4.552-2.668c2.504-1.467 4.552-3.235 4.552-3.929 0-1.46-5.56-6.952-8.5-8.397-2.961-1.455-9.509-2.09-13.563-1.314m-414.27.724c-.85.85-.876 39.525-.031 45.693l.636 4.64h5.247c5.841 0 6.44-.768 6.467-8.285.015-3.963 2.437-8.754 4.379-8.661.624.03 4.049 3.855 7.611 8.5L89.452 419h6.774c3.726 0 6.774-.261 6.774-.581 0-.319-4.275-6.237-9.5-13.151S84 392.151 84 391.483c0-1.059 3.365-6.077 5.019-7.483 1.21-1.029 11.981-14.915 11.981-15.447 0-.304-3.263-.543-7.25-.53l-7.25.022-7.5 9.228-7.5 9.227-.288-9.25-.287-9.25h-5.796c-3.188 0-6.096.3-6.462.667m169.854.537c-.686 1.967-3.723 10.442-10.955 30.569-3.611 10.05-6.566 18.487-6.566 18.75 0 .262 2.711.477 6.025.477 5.669 0 6.082-.162 6.999-2.75 2.023-5.708 2.108-5.75 11.585-5.75h8.891l1.921 4.25 1.921 4.25h5.946c5.197 0 5.879-.22 5.416-1.75-.644-2.127-9.222-26.174-14.002-39.25l-3.472-9.5-6.629-.296c-4.745-.212-6.757.072-7.08 1m52.146-.537c-.83.829-.863 44.998-.037 48.083.592 2.21.879 2.25 15.987 2.25H312v-10.928l-9.75-.286-9.75-.286v-8l8.5-.5 8.5-.5v-11l-8.5-.5-8.5-.5v-6l9.5-.5 9.5-.5.3-5.75.3-5.75h-15.383c-8.461 0-15.684.3-16.05.667m52.566 24.583.267 25.25h11l.5-8 .5-8h2.919c2.595 0 3.457.913 7.787 8.25l4.869 8.25h5.962c3.717 0 5.963-.42 5.963-1.115 0-.613-2.085-4.97-4.633-9.683-4.576-8.466-4.608-8.588-2.624-10.195 5.736-4.645 6.997-16.35 2.45-22.737-4.016-5.639-9.181-7.27-23.026-7.27h-12.201l.267 25.25m72.267-22.897c-19.838 9.258-19.985 36.063-.256 46.638 9.892 5.302 22.15 2.814 30.189-6.128 5.044-5.61 6.564-9.761 6.539-17.863-.054-18.429-19.559-30.54-36.472-22.647m110.733 22.897.267 25.25 5.709.299 5.709.298.291-8.298.291-8.299 5-.261c7.582-.397 9.212-.984 13.516-4.872 8.945-8.082 6.745-21.916-4.339-27.281-3.581-1.734-6.199-2.086-15.51-2.086h-11.201l.267 25.25m60.729-13a1947.737 1947.737 0 0 1-8.623 24.047c-2.387 6.488-4.339 12.451-4.339 13.25 0 1.103 1.394 1.453 5.793 1.453h5.794l1.549-4.25 1.55-4.25h18.628l1.55 4.25 1.549 4.25h11.746l-.713-3.246c-.392-1.785-1.301-4.598-2.019-6.25-.718-1.652-4.089-10.879-7.491-20.504-3.403-9.625-6.596-18.288-7.096-19.25-.722-1.387-2.226-1.75-7.252-1.75h-6.342l-4.284 12.25m65.141-10.02c-5.112 2.477-10.36 7.433-12.736 12.028-2.699 5.219-2.995 15.533-.602 20.944 6.615 14.955 22.42 20.72 36.217 13.211 4.237-2.306 10.018-7.964 10.018-9.804 0-.289-2.052-1.727-4.56-3.197l-4.559-2.672-2.691 2.566c-11.265 10.746-28.133.172-23.264-14.583 1.549-4.692 7.388-8.724 12.628-8.719 3.556.003 5.931 1.061 11.619 5.178 1.362.985 2.527.772 6.25-1.143 2.518-1.294 4.577-2.883 4.577-3.53 0-1.991-6.975-8.277-11.596-10.449-5.947-2.796-15.335-2.721-21.301.17m53.13 23.02.267 25.25 15.75.275 15.75.276v-10.979l-9.75-.286-9.75-.286v-8l8.5-.5 8.5-.5v-11l-8.5-.5-8.5-.5-.311-3.213-.31-3.213 9.81-.287 9.811-.287.3-5.75.3-5.75h-32.134l.267 25.25m-350.035-8 .302 5.25 5.359.306c6.035.345 9.141-1.487 9.141-5.39 0-3.9-2.554-5.416-9.124-5.416h-5.981l.303 5.25m63.801-3c-4.721 3.223-7.245 8.314-6.517 13.145 1.512 10.019 11.168 15.238 20.235 10.935 9.543-4.528 9.777-19.92.377-24.781-4.348-2.249-10.2-1.958-14.095.701M528 385.5v5.5h4.929c5.51 0 8.071-1.745 8.071-5.5s-2.561-5.5-8.071-5.5H528v5.5m-294.551 5.968c-2.434 5.824-1.982 7.532 1.992 7.532 1.893 0 3.667-.366 3.943-.813.661-1.068-2.631-10.187-3.677-10.187-.445 0-1.461 1.561-2.258 3.468m352.453-.718c-.576 1.512-1.296 3.988-1.6 5.5-.531 2.645-.394 2.75 3.573 2.75 4.721 0 5-.773 2.516-6.98-1.889-4.721-3.048-5.049-4.489-1.27" fill-rule="evenodd"/></svg>