<svg width="180" height="180" xmlns="http://www.w3.org/2000/svg"><path fill="#040404" fill-rule="evenodd" d="M101.643 25.777c-1.064.973-5.19 5.389-9.167 9.814-3.979 4.425-7.446 8.045-7.706 8.045-.26 0-2.883-2.699-5.828-5.997-2.945-3.299-5.513-5.999-5.706-6-.193-.002-1.833 2.513-3.646 5.588-11.892 20.177-15.426 26.291-15.426 26.688 0 .247 8.455.449 18.787.449H91.74l.674-1.5c1.8-4.006 7.354-13.25 7.723-12.857.23.246 1.412 3.516 2.626 7.266l2.209 6.818 7.457.352c4.102.194 7.555.45 7.673.567.119.118-2.359 2.15-5.505 4.515-3.146 2.365-5.72 4.622-5.72 5.016 0 .394 2.115 5.525 4.7 11.402 2.584 5.877 4.584 10.8 4.444 10.94-.14.14-4.708-3.192-10.151-7.405s-10.27-7.66-10.729-7.66c-.457 0-5.403 2.114-10.992 4.698-5.587 2.583-10.263 4.593-10.39 4.467-.126-.126 1.608-3.283 3.853-7.015 2.246-3.733 4.087-6.97 4.09-7.195.004-.225-14.396-.41-31.999-.41-17.603 0-32.002.185-31.996.41.005.224 1.298 1.239 2.872 2.254 1.575 1.015 5.64 3.837 9.034 6.272 4.953 3.554 6.131 4.654 5.973 5.57-.108.629-4.524 8.483-9.81 17.455C7.018 143.54.038 155.734.54 155.904c.425.144 53.537-26.345 84.207-41.998 4.032-2.058 7.446-3.627 7.587-3.487.14.14-2.147 5.604-5.081 12.144-8.451 18.837-11.259 25.384-10.997 25.645.333.331 1.652-.548 14.564-9.704 17.99-12.757 17.109-12.249 19.842-11.44 1.273.377 16.641 6.282 34.15 13.123 17.509 6.84 32.588 12.604 33.51 12.805 1.272.279 1.677.175 1.677-.426 0-.437-3.722-12.3-8.271-26.361-4.55-14.063-10.058-31.091-12.243-37.841-4.55-14.062-4.998-15.273-5.648-15.273-.26 0-2.898 2.086-5.86 4.636-2.962 2.55-5.578 4.637-5.814 4.637-.612 0-3.765-4.786-21.419-32.51-8.616-13.531-16.004-24.881-16.417-25.223-.588-.487-1.172-.238-2.685 1.146"/></svg>