<?xml version="1.0" encoding="UTF-8"?>
<!-- Generated by Pixelmator Pro 3.6.4 -->
<svg width="180" height="180" viewBox="0 0 180 180" xmlns="http://www.w3.org/2000/svg">
    <g id="408-84">
        <path id="Path" fill="#929292" stroke="none" d="M 31.621599 68.94677 L 59.851521 124.582382 L 82.517876 132.618637 C 95.08741 137.151901 105.390297 140.448822 105.802414 140.242767 C 106.626648 139.624603 94.263176 114.48555 91.378365 110.982567 C 89.935966 109.128044 87.25721 109.540161 80.045189 112.631027 C 75.0998 114.691605 69.124123 116.546127 67.2696 116.546127 C 55.936424 116.546127 56.142479 79.867828 67.475655 76.364853 C 69.53624 75.540627 71.1847 74.098221 71.1847 73.067924 C 71.1847 68.32859 50.37286 30.413956 47.075935 28.971558 C 40.069969 26.292801 4.834085 13.517212 4.009853 13.517212 C 3.597737 13.517212 16.167263 38.450226 31.621599 68.94677 Z"/>
        <path id="path1" fill="#929292" stroke="none" d="M 73.245277 39.480499 C 73.245277 40.510788 85.608742 65.649849 86.845093 66.886185 C 87.25721 67.504364 92.82077 65.649849 99.002502 63.177155 C 112.190201 57.613586 115.281067 58.849937 118.577995 71.007355 C 121.256752 81.310242 117.959831 93.879768 111.365974 99.237274 L 105.802414 103.564484 L 117.341652 126.230835 C 123.523384 138.800369 130.323303 149.721436 132.383865 150.54567 C 139.183777 153.224411 174.625717 166 175.449951 166 C 175.862061 166 121.874924 58.849937 119.814346 55.346947 C 118.990112 54.110611 73.245277 38.450226 73.245277 39.480499 Z"/>
    </g>
    <text id="K2" xml:space="preserve" x="6" y="129" font-family="Trattatello" font-size="153" fill="#1155cc" letter-spacing="-3.06">K2</text>
</svg>
